<?xml version="1.0" standalone="no"?>
<!DOCTYPE svg PUBLIC "-//W3C//DTD SVG 20010904//EN"
 "http://www.w3.org/TR/2001/REC-SVG-20010904/DTD/svg10.dtd">
<svg version="1.0" xmlns="http://www.w3.org/2000/svg"
 width="260.000000pt" height="260.000000pt" viewBox="0 0 260.000000 260.000000"
 preserveAspectRatio="xMidYMid meet">
<metadata>
Created by potrace 1.11, written by Peter Selinger 2001-2013
</metadata>
<g transform="translate(0.000000,260.000000) scale(0.100000,-0.100000)"
fill="#000000" stroke="none">
<path d="M193 1919 c-14 -5 -16 -62 -17 -572 l-1 -567 73 0 c68 0 72 1 73 23
0 12 1 226 1 475 0 250 1 452 2 450 2 -2 35 -91 75 -198 40 -107 76 -204 81
-215 5 -11 30 -76 55 -145 25 -69 50 -135 56 -148 9 -24 77 -206 84 -230 4 -9
24 -12 72 -10 l67 3 73 195 c41 107 80 211 87 230 7 19 52 142 102 273 l89
238 3 -471 2 -470 73 0 72 0 0 570 c0 502 -1 570 -15 571 -35 3 -192 0 -194
-3 -2 -2 -269 -710 -336 -891 -12 -32 -24 -57 -26 -54 -2 2 -14 32 -27 68 -26
69 -229 613 -279 744 -16 44 -35 92 -40 108 -7 17 -18 27 -32 28 -94 4 -159 3
-173 -2z"/>
<path d="M1565 1355 l0 -570 307 -2 c338 -2 372 2 458 62 191 132 172 444 -32
520 l-48 18 46 30 c82 54 126 149 118 255 -5 66 -32 120 -85 173 -73 73 -120
80 -502 83 l-262 1 0 -570z m581 425 c84 -28 114 -71 114 -164 0 -80 -26 -128
-87 -157 -45 -22 -62 -24 -250 -27 -112 -2 -203 0 -204 4 0 5 -1 87 -2 181 -2
143 0 173 12 175 46 9 383 -1 417 -12z m20 -489 c103 -28 150 -93 141 -198 -6
-76 -39 -132 -95 -160 -32 -15 -68 -18 -264 -21 -214 -3 -228 -2 -229 15 -6
109 0 366 9 372 17 10 396 3 438 -8z"/>
</g>
</svg>
